<svg width="17" height="24" viewBox="0 0 17 24" fill="none" xmlns="http://www.w3.org/2000/svg">
<g clip-path="url(#clip0_360_1799)">
<path d="M1.74944 16.5391C1.18286 17.4074 0.935013 18.4412 1.04721 19.4681C1.15941 20.4949 1.62489 21.4528 2.36602 22.182C2.78645 22.6138 3.29189 22.9562 3.8513 23.1881C4.41071 23.4201 5.01226 23.5367 5.61901 23.5309H10.2175V22.0036H9.0998L9.36254 21.6304C9.99465 20.7546 10.292 19.6861 10.202 18.6144C10.1119 17.5428 9.64019 16.5373 8.87049 15.7762C8.44943 15.3463 7.94384 15.0059 7.38473 14.7758C6.82562 14.5456 6.22476 14.4306 5.61901 14.4378C5.48299 14.4363 5.34701 14.4438 5.21201 14.4603L5.06014 14.4812L3.84217 12.7606H8.25542C8.41944 12.7606 8.58346 12.7606 8.74595 12.7606H8.84315C8.86289 12.7606 8.88112 12.7606 8.90086 12.7606H16.0811L13.4872 9.05864L13.7393 8.93724C14.277 8.67945 14.7857 8.18785 15.258 7.46094C15.7399 6.73367 15.994 5.88238 15.9885 5.01343C15.996 4.4175 15.8804 3.82631 15.6488 3.2759C15.4172 2.7255 15.0745 2.22741 14.6414 1.81203C14.2188 1.38184 13.7116 1.04137 13.1509 0.811484C12.5903 0.581596 11.9879 0.467134 11.3808 0.475114H6.7808V1.99638H7.89702L7.63429 2.36957C7.06635 3.13614 6.76579 4.06388 6.77776 5.01343C6.76937 5.61081 6.8845 6.20361 7.11611 6.7556C7.34772 7.30759 7.69095 7.80717 8.12482 8.22382C8.54684 8.65365 9.05325 8.99403 9.61308 9.22415C10.1729 9.45428 10.7744 9.56931 11.3808 9.56223C11.5169 9.56406 11.653 9.55605 11.7879 9.53825L11.9397 9.51877L13.1577 11.2409H8.75355C8.68521 11.2409 8.61687 11.2409 8.54701 11.2409C8.47715 11.2409 8.36629 11.2409 8.27517 11.2409H0.911133L3.50654 14.9429L3.25444 15.0643C2.72139 15.3206 2.21415 15.8166 1.74944 16.5391ZM13.2124 6.82545C12.7257 7.29976 12.0693 7.56572 11.3854 7.56572C10.7015 7.56572 10.0451 7.29976 9.55844 6.82545C9.31236 6.59123 9.11791 6.3094 8.98725 5.99761C8.85659 5.68582 8.79254 5.35077 8.79911 5.01343C8.79361 4.67823 8.8582 4.34551 8.98885 4.03606C9.1195 3.7266 9.3134 3.44706 9.55844 3.21489C10.0445 2.7395 10.7011 2.47279 11.3854 2.47279C12.0697 2.47279 12.7263 2.7395 13.2124 3.21489C13.4574 3.44706 13.6513 3.7266 13.782 4.03606C13.9126 4.34551 13.9772 4.67823 13.9717 5.01343C13.9783 5.35077 13.9142 5.68582 13.7836 5.99761C13.6529 6.3094 13.4584 6.59123 13.2124 6.82545ZM3.03727 18.9776C3.03177 18.6424 3.09637 18.3097 3.22702 18.0002C3.35767 17.6908 3.55157 17.4112 3.79661 17.179C4.03237 16.9385 4.31592 16.7485 4.62951 16.6211C4.9431 16.4937 5.27997 16.4316 5.61901 16.4386C5.95808 16.4314 6.295 16.4935 6.60862 16.6209C6.92223 16.7483 7.20577 16.9383 7.44142 17.179C7.68271 17.4158 7.8742 17.6973 8.00486 18.0074C8.13553 18.3175 8.2028 18.65 8.2028 18.9858C8.2028 19.3216 8.13553 19.6542 8.00486 19.9642C7.8742 20.2743 7.68271 20.5558 7.44142 20.7926C7.20577 21.0333 6.92223 21.2234 6.60862 21.3508C6.295 21.4782 5.95808 21.5402 5.61901 21.533C4.93429 21.533 4.27762 21.2646 3.79345 20.7867C3.30928 20.3089 3.03727 19.6608 3.03727 18.9851V18.9776Z" fill="#6363FC"/>
<path d="M11.381 8.04096C11.7838 8.04718 12.1837 7.97238 12.5562 7.82112C12.9288 7.66987 13.2663 7.44533 13.5481 7.16118C13.8379 6.88218 14.067 6.54787 14.2216 6.17861C14.3762 5.80936 14.4529 5.41291 14.4471 5.01342C14.4524 4.61556 14.3754 4.22082 14.2208 3.85333C14.0663 3.48585 13.8373 3.15335 13.5481 2.87616C12.9714 2.31254 12.1926 1.99636 11.381 1.99636C10.5693 1.99636 9.79051 2.31254 9.21381 2.87616C8.92456 3.15335 8.69564 3.48585 8.54106 3.85333C8.38647 4.22082 8.30947 4.61556 8.31475 5.01342C8.309 5.41291 8.38574 5.80936 8.54031 6.17861C8.69488 6.54787 8.92404 6.88218 9.21381 7.16118C9.4956 7.44533 9.83308 7.66987 10.2057 7.82112C10.5782 7.97238 10.9781 8.04718 11.381 8.04096ZM13.2034 6.82545C12.7167 7.29975 12.0603 7.56572 11.3764 7.56572C10.6925 7.56572 10.0361 7.29975 9.54943 6.82545C9.30335 6.59123 9.1089 6.3094 8.97824 5.99761C8.84758 5.68582 8.78353 5.35077 8.7901 5.01342C8.7846 4.67823 8.84919 4.34551 8.97984 4.03605C9.11049 3.7266 9.30439 3.44706 9.54943 3.21488C10.0355 2.7395 10.6921 2.47279 11.3764 2.47279C12.0607 2.47279 12.7173 2.7395 13.2034 3.21488C13.4484 3.44706 13.6423 3.7266 13.7729 4.03605C13.9036 4.34551 13.9682 4.67823 13.9627 5.01342C13.9704 5.35011 13.9078 5.68477 13.7787 5.99652C13.6497 6.30828 13.4569 6.59045 13.2125 6.82545H13.2034Z" fill="#2323A9"/>
<path d="M3.45217 16.8388C3.02227 17.2614 2.72924 17.8006 2.61025 18.3878C2.49126 18.975 2.55168 19.5839 2.78384 20.1372C3.016 20.6905 3.40944 21.1633 3.91426 21.4955C4.41907 21.8278 5.01252 22.0047 5.61932 22.0036C6.22599 22.0044 6.81922 21.8273 7.3238 21.4949C7.82839 21.1625 8.22159 20.6897 8.45356 20.1365C8.68553 19.5833 8.74582 18.9745 8.62679 18.3874C8.50775 17.8003 8.21475 17.2614 7.78494 16.8388C7.50354 16.5546 7.16635 16.3299 6.794 16.1787C6.42164 16.0274 6.02194 15.9527 5.61932 15.959C5.21649 15.9528 4.81661 16.0276 4.44402 16.1789C4.07144 16.3301 3.73397 16.5547 3.45217 16.8388ZM3.03758 18.9851C3.03758 18.3093 3.30958 17.6612 3.79375 17.1834C4.27792 16.7056 4.9346 16.4371 5.61932 16.4371C6.30404 16.4371 6.96071 16.7056 7.44488 17.1834C7.92905 17.6612 8.20106 18.3093 8.20106 18.9851C8.20692 19.3203 8.1425 19.6531 8.01182 19.9627C7.88115 20.2722 7.68706 20.5517 7.44172 20.7836C7.20607 21.0243 6.92254 21.2144 6.60892 21.3418C6.29531 21.4692 5.95839 21.5312 5.61932 21.524C5.28027 21.531 4.94341 21.4689 4.62982 21.3415C4.31623 21.2141 4.03267 21.0242 3.79691 20.7836C3.55187 20.5514 3.35797 20.2719 3.22732 19.9624C3.09667 19.653 3.03208 19.3203 3.03758 18.9851Z" fill="#2323A9"/>
<path d="M1.34402 16.2827C0.717154 17.2427 0.442879 18.3859 0.566975 19.5214C0.691071 20.6569 1.20603 21.7161 2.02591 22.5221C2.49155 22.9966 3.05036 23.3724 3.66817 23.6265C4.28598 23.8806 4.94981 24.0077 5.61908 23.9999H10.699V21.5285H10.0004C10.4735 20.7617 10.7158 19.878 10.699 18.9805C10.7082 18.3211 10.5809 17.6668 10.325 17.0576C10.0691 16.4483 9.68993 15.897 9.21074 15.4374C8.74512 14.9635 8.18646 14.5883 7.56891 14.3347C6.95136 14.0811 6.2879 13.9545 5.61908 13.9626C5.50063 13.9626 5.39128 13.9626 5.29257 13.9746L4.76711 13.2357H17L14.1935 9.23244C14.7915 8.84424 15.2913 8.32586 15.6545 7.71717C16.1855 6.91539 16.4659 5.97722 16.4609 5.01937C16.4704 4.36002 16.3434 3.7057 16.0878 3.09647C15.8321 2.48724 15.4532 1.93591 14.9741 1.47625C14.5082 1.00224 13.9493 0.626879 13.3315 0.373061C12.7137 0.119244 12.05 -0.00770958 11.3809 -5.48133e-05H6.30096V2.46994H6.99955C6.52682 3.23679 6.28455 4.12039 6.30096 5.01787C6.29206 5.67668 6.4193 6.33038 6.67493 6.93904C6.93055 7.54771 7.3092 8.09857 7.78774 8.55799C8.25281 9.03364 8.81138 9.41057 9.42923 9.66571C10.0471 9.92085 10.7112 10.0488 11.3809 10.0418C11.4994 10.0418 11.6087 10.0418 11.7059 10.0313L12.2329 10.7702H0L2.80498 14.7674C2.20763 15.1564 1.70798 15.6746 1.34402 16.2827ZM1.01903 18.9805C1.01355 18.112 1.26764 17.2612 1.74951 16.5345C2.21422 15.8121 2.72146 15.316 3.26818 15.0582L3.52028 14.9368L0.911202 11.2408H8.27372C8.36484 11.2408 8.45444 11.2408 8.54556 11.2408C8.63668 11.2408 8.68376 11.2408 8.7521 11.2408H13.1562L11.9337 9.51871L11.7818 9.53819C11.647 9.55599 11.5109 9.56401 11.3748 9.56217C10.7689 9.56885 10.168 9.45362 9.60872 9.2235C9.04943 8.99339 8.54352 8.65322 8.12185 8.22376C7.68798 7.80712 7.34475 7.30754 7.11314 6.75555C6.88153 6.20356 6.7664 5.61076 6.77479 5.01337C6.76283 4.06383 7.06339 3.13609 7.63132 2.36952L7.89709 1.99632H6.78086V0.475059H11.3809C11.9867 0.468102 12.5876 0.583061 13.1469 0.812919C13.7062 1.04278 14.2122 1.38271 14.6339 1.81197C15.0669 2.22736 15.4097 2.72544 15.6413 3.27585C15.8729 3.82625 15.9885 4.41744 15.981 5.01337C15.9865 5.88233 15.7324 6.73361 15.2505 7.46088C14.7858 8.1833 14.277 8.67939 13.7318 8.93718L13.4797 9.05858L16.0736 12.7606H8.90093C8.88119 12.7606 8.86296 12.7606 8.84322 12.7606H8.74602C8.58353 12.7606 8.41951 12.7606 8.25549 12.7606H3.84224L5.06629 14.4812L5.21815 14.4602C5.35115 14.444 5.48508 14.4365 5.61908 14.4377C6.22483 14.4305 6.82569 14.5456 7.3848 14.7757C7.94391 15.0058 8.4495 15.3463 8.87055 15.7761C9.64026 16.5372 10.112 17.5428 10.202 18.6144C10.2921 19.686 9.99472 20.7545 9.3626 21.6304L9.09987 22.0036H10.2176V23.5308H5.61908C5.01233 23.5367 4.41078 23.42 3.85137 23.1881C3.29196 22.9561 2.78652 22.6137 2.36609 22.1819C1.93311 21.7674 1.59034 21.2702 1.35873 20.7205C1.12711 20.1708 1.01152 19.5803 1.01903 18.985V18.9805Z" fill="#2323A9"/>
<path d="M3.45217 16.8388C3.02227 17.2614 2.72924 17.8006 2.61025 18.3878C2.49126 18.975 2.55168 19.5839 2.78384 20.1372C3.016 20.6905 3.40944 21.1633 3.91426 21.4955C4.41907 21.8278 5.01252 22.0047 5.61932 22.0036C6.22599 22.0044 6.81922 21.8273 7.3238 21.4949C7.82839 21.1625 8.22159 20.6897 8.45356 20.1365C8.68553 19.5833 8.74582 18.9745 8.62679 18.3874C8.50775 17.8003 8.21475 17.2614 7.78494 16.8388C7.50354 16.5546 7.16635 16.3299 6.794 16.1787C6.42164 16.0274 6.02194 15.9527 5.61932 15.959C5.21649 15.9528 4.81661 16.0276 4.44402 16.1789C4.07144 16.3301 3.73397 16.5547 3.45217 16.8388ZM3.03758 18.9851C3.03758 18.3093 3.30958 17.6612 3.79375 17.1834C4.27792 16.7056 4.9346 16.4371 5.61932 16.4371C6.30404 16.4371 6.96071 16.7056 7.44488 17.1834C7.92905 17.6612 8.20106 18.3093 8.20106 18.9851C8.20692 19.3203 8.1425 19.6531 8.01182 19.9627C7.88115 20.2722 7.68706 20.5517 7.44172 20.7836C7.20607 21.0243 6.92254 21.2144 6.60892 21.3418C6.29531 21.4692 5.95839 21.5312 5.61932 21.524C5.28027 21.531 4.94341 21.4689 4.62982 21.3415C4.31623 21.2141 4.03267 21.0242 3.79691 20.7836C3.55187 20.5514 3.35797 20.2719 3.22732 19.9624C3.09667 19.653 3.03208 19.3203 3.03758 18.9851Z" fill="#2323A9"/>
</g>
<defs>
<clipPath id="clip0_360_1799">
<rect width="17" height="24" fill="white"/>
</clipPath>
</defs>
</svg>
