<svg width="17" height="24" viewBox="0 0 17 24" fill="none" xmlns="http://www.w3.org/2000/svg">
<g clip-path="url(#clip0_293_893)">
<path d="M1.7495 16.5391C1.18292 17.4074 0.935074 18.4412 1.04727 19.4681C1.15948 20.4949 1.62495 21.4528 2.36608 22.182C2.78651 22.6138 3.29196 22.9562 3.85136 23.1881C4.41077 23.4201 5.01232 23.5367 5.61907 23.5309H10.2176V22.0036H9.09987L9.3626 21.6304C9.99471 20.7546 10.2921 19.6861 10.202 18.6144C10.112 17.5428 9.64025 16.5373 8.87055 15.7762C8.44949 15.3463 7.9439 15.0059 7.38479 14.7758C6.82568 14.5456 6.22483 14.4306 5.61907 14.4378C5.48305 14.4363 5.34708 14.4438 5.21207 14.4603L5.0602 14.4812L3.84223 12.7606H8.25549C8.4195 12.7606 8.58352 12.7606 8.74602 12.7606H8.84321C8.86295 12.7606 8.88118 12.7606 8.90092 12.7606H16.0812L13.4873 9.05864L13.7394 8.93724C14.277 8.67945 14.7858 8.18785 15.2581 7.46094C15.74 6.73367 15.9941 5.88238 15.9886 5.01343C15.9961 4.4175 15.8805 3.82631 15.6489 3.2759C15.4173 2.7255 15.0745 2.22741 14.6415 1.81203C14.2189 1.38184 13.7117 1.04137 13.151 0.811484C12.5903 0.581596 11.988 0.467134 11.3809 0.475114H6.78086V1.99638H7.89708L7.63435 2.36957C7.06642 3.13614 6.76586 4.06388 6.77782 5.01343C6.76943 5.61081 6.88456 6.20361 7.11617 6.7556C7.34778 7.30759 7.69101 7.80717 8.12488 8.22382C8.5469 8.65365 9.05331 8.99403 9.61314 9.22415C10.173 9.45428 10.7745 9.56931 11.3809 9.56223C11.517 9.56406 11.653 9.55605 11.7879 9.53825L11.9398 9.51877L13.1578 11.2409H8.75361C8.68527 11.2409 8.61693 11.2409 8.54707 11.2409C8.47721 11.2409 8.36635 11.2409 8.27523 11.2409H0.911194L3.5066 14.9429L3.2545 15.0643C2.72145 15.3206 2.21421 15.8166 1.7495 16.5391ZM13.2124 6.82545C12.7258 7.29976 12.0694 7.56572 11.3855 7.56572C10.7015 7.56572 10.0451 7.29976 9.5585 6.82545C9.31242 6.59123 9.11797 6.3094 8.98731 5.99761C8.85665 5.68582 8.7926 5.35077 8.79917 5.01343C8.79367 4.67823 8.85826 4.34551 8.98891 4.03606C9.11956 3.7266 9.31346 3.44706 9.5585 3.21489C10.0445 2.7395 10.7012 2.47279 11.3855 2.47279C12.0698 2.47279 12.7264 2.7395 13.2124 3.21489C13.4575 3.44706 13.6514 3.7266 13.782 4.03606C13.9127 4.34551 13.9773 4.67823 13.9718 5.01343C13.9783 5.35077 13.9143 5.68582 13.7836 5.99761C13.653 6.3094 13.4585 6.59123 13.2124 6.82545ZM3.03733 18.9776C3.03183 18.6424 3.09643 18.3097 3.22708 18.0002C3.35773 17.6908 3.55163 17.4112 3.79667 17.179C4.03243 16.9385 4.31599 16.7485 4.62957 16.6211C4.94316 16.4937 5.28003 16.4316 5.61907 16.4386C5.95814 16.4314 6.29506 16.4935 6.60868 16.6209C6.92229 16.7483 7.20583 16.9383 7.44148 17.179C7.68277 17.4158 7.87426 17.6973 8.00493 18.0074C8.13559 18.3175 8.20286 18.65 8.20286 18.9858C8.20286 19.3216 8.13559 19.6542 8.00493 19.9642C7.87426 20.2743 7.68277 20.5558 7.44148 20.7926C7.20583 21.0333 6.92229 21.2234 6.60868 21.3508C6.29506 21.4782 5.95814 21.5402 5.61907 21.533C4.93435 21.533 4.27768 21.2646 3.79351 20.7867C3.30934 20.3089 3.03733 19.6608 3.03733 18.9851V18.9776Z" fill="white"/>
<path d="M11.3809 8.04096C11.7837 8.04718 12.1836 7.97238 12.5562 7.82112C12.9288 7.66987 13.2662 7.44533 13.548 7.16118C13.8378 6.88218 14.067 6.54787 14.2215 6.17861C14.3761 5.80936 14.4528 5.41291 14.4471 5.01342C14.4524 4.61556 14.3754 4.22082 14.2208 3.85333C14.0662 3.48585 13.8373 3.15335 13.548 2.87616C12.9713 2.31254 12.1925 1.99636 11.3809 1.99636C10.5693 1.99636 9.79045 2.31254 9.21375 2.87616C8.9245 3.15335 8.69558 3.48585 8.541 3.85333C8.38641 4.22082 8.30941 4.61556 8.31469 5.01342C8.30894 5.41291 8.38568 5.80936 8.54025 6.17861C8.69482 6.54787 8.92398 6.88218 9.21375 7.16118C9.49554 7.44533 9.83302 7.66987 10.2056 7.82112C10.5782 7.97238 10.9781 8.04718 11.3809 8.04096ZM13.2033 6.82545C12.7167 7.29975 12.0603 7.56572 11.3763 7.56572C10.6924 7.56572 10.036 7.29975 9.54937 6.82545C9.30329 6.59123 9.10884 6.3094 8.97818 5.99761C8.84752 5.68582 8.78347 5.35077 8.79004 5.01342C8.78454 4.67823 8.84913 4.34551 8.97978 4.03605C9.11043 3.7266 9.30433 3.44706 9.54937 3.21488C10.0354 2.7395 10.692 2.47279 11.3763 2.47279C12.0606 2.47279 12.7172 2.7395 13.2033 3.21488C13.4483 3.44706 13.6422 3.7266 13.7729 4.03605C13.9035 4.34551 13.9681 4.67823 13.9626 5.01342C13.9704 5.35011 13.9078 5.68477 13.7787 5.99652C13.6496 6.30828 13.4568 6.59045 13.2124 6.82545H13.2033Z" fill="#DBDBDB"/>
<path d="M3.45193 16.8388C3.02202 17.2614 2.72899 17.8006 2.61001 18.3878C2.49102 18.975 2.55144 19.5839 2.7836 20.1372C3.01576 20.6905 3.4092 21.1633 3.91401 21.4955C4.41883 21.8278 5.01227 22.0047 5.61907 22.0036C6.22574 22.0044 6.81898 21.8273 7.32356 21.4949C7.82814 21.1625 8.22135 20.6897 8.45332 20.1365C8.68529 19.5833 8.74558 18.9745 8.62654 18.3874C8.50751 17.8003 8.21451 17.2614 7.7847 16.8388C7.50329 16.5546 7.16611 16.3299 6.79375 16.1787C6.42139 16.0274 6.02169 15.9527 5.61907 15.959C5.21625 15.9528 4.81636 16.0276 4.44378 16.1789C4.0712 16.3301 3.73373 16.5547 3.45193 16.8388ZM3.03733 18.9851C3.03733 18.3093 3.30934 17.6612 3.79351 17.1834C4.27768 16.7056 4.93435 16.4371 5.61907 16.4371C6.30379 16.4371 6.96047 16.7056 7.44464 17.1834C7.92881 17.6612 8.20081 18.3093 8.20081 18.9851C8.20668 19.3203 8.14225 19.6531 8.01158 19.9627C7.88091 20.2722 7.68681 20.5517 7.44148 20.7836C7.20583 21.0243 6.92229 21.2144 6.60868 21.3418C6.29506 21.4692 5.95814 21.5312 5.61907 21.524C5.28003 21.531 4.94316 21.4689 4.62957 21.3415C4.31599 21.2141 4.03243 21.0242 3.79667 20.7836C3.55163 20.5514 3.35773 20.2719 3.22708 19.9624C3.09643 19.653 3.03183 19.3203 3.03733 18.9851Z" fill="#2323A9"/>
<path d="M1.34402 16.2827C0.717154 17.2427 0.442879 18.3859 0.566975 19.5214C0.691071 20.6569 1.20603 21.7161 2.02591 22.5221C2.49155 22.9966 3.05036 23.3724 3.66817 23.6265C4.28598 23.8806 4.94981 24.0077 5.61908 23.9999H10.699V21.5285H10.0004C10.4735 20.7617 10.7158 19.878 10.699 18.9805C10.7082 18.3211 10.5809 17.6668 10.325 17.0576C10.0691 16.4483 9.68993 15.897 9.21074 15.4374C8.74512 14.9635 8.18646 14.5883 7.56891 14.3347C6.95136 14.0811 6.2879 13.9545 5.61908 13.9626C5.50063 13.9626 5.39128 13.9626 5.29257 13.9746L4.76711 13.2357H17L14.1935 9.23244C14.7915 8.84424 15.2913 8.32586 15.6545 7.71717C16.1855 6.91539 16.4659 5.97722 16.4609 5.01937C16.4704 4.36002 16.3434 3.7057 16.0878 3.09647C15.8321 2.48724 15.4532 1.93591 14.9741 1.47625C14.5082 1.00224 13.9493 0.626879 13.3315 0.373061C12.7137 0.119244 12.05 -0.00770958 11.3809 -5.48133e-05H6.30096V2.46994H6.99955C6.52682 3.23679 6.28455 4.12039 6.30096 5.01787C6.29206 5.67668 6.4193 6.33038 6.67493 6.93904C6.93055 7.54771 7.3092 8.09857 7.78774 8.55799C8.25281 9.03364 8.81138 9.41057 9.42923 9.66571C10.0471 9.92085 10.7112 10.0488 11.3809 10.0418C11.4994 10.0418 11.6087 10.0418 11.7059 10.0313L12.2329 10.7702H0L2.80498 14.7674C2.20763 15.1564 1.70798 15.6746 1.34402 16.2827ZM1.01903 18.9805C1.01355 18.112 1.26764 17.2612 1.74951 16.5345C2.21422 15.8121 2.72146 15.316 3.26818 15.0582L3.52028 14.9368L0.911202 11.2408H8.27372C8.36484 11.2408 8.45444 11.2408 8.54556 11.2408C8.63668 11.2408 8.68376 11.2408 8.7521 11.2408H13.1562L11.9337 9.51871L11.7818 9.53819C11.647 9.55599 11.5109 9.56401 11.3748 9.56217C10.7689 9.56885 10.168 9.45362 9.60872 9.2235C9.04943 8.99339 8.54352 8.65322 8.12185 8.22376C7.68798 7.80712 7.34475 7.30754 7.11314 6.75555C6.88153 6.20356 6.7664 5.61076 6.77479 5.01337C6.76283 4.06383 7.06339 3.13609 7.63132 2.36952L7.89709 1.99632H6.78086V0.475059H11.3809C11.9867 0.468102 12.5876 0.583061 13.1469 0.812919C13.7062 1.04278 14.2122 1.38271 14.6339 1.81197C15.0669 2.22736 15.4097 2.72544 15.6413 3.27585C15.8729 3.82625 15.9885 4.41744 15.981 5.01337C15.9865 5.88233 15.7324 6.73361 15.2505 7.46088C14.7858 8.1833 14.277 8.67939 13.7318 8.93718L13.4797 9.05858L16.0736 12.7606H8.90093C8.88119 12.7606 8.86296 12.7606 8.84322 12.7606H8.74602C8.58353 12.7606 8.41951 12.7606 8.25549 12.7606H3.84224L5.06629 14.4812L5.21815 14.4602C5.35115 14.444 5.48508 14.4365 5.61908 14.4377C6.22483 14.4305 6.82569 14.5456 7.3848 14.7757C7.94391 15.0058 8.4495 15.3463 8.87055 15.7761C9.64026 16.5372 10.112 17.5428 10.202 18.6144C10.2921 19.686 9.99472 20.7545 9.3626 21.6304L9.09987 22.0036H10.2176V23.5308H5.61908C5.01233 23.5367 4.41078 23.42 3.85137 23.1881C3.29196 22.9561 2.78652 22.6137 2.36609 22.1819C1.93311 21.7674 1.59034 21.2702 1.35873 20.7205C1.12711 20.1708 1.01152 19.5803 1.01903 18.985V18.9805Z" fill="#DBDBDB"/>
<path d="M3.45193 16.8388C3.02202 17.2614 2.72899 17.8006 2.61001 18.3878C2.49102 18.975 2.55144 19.5839 2.7836 20.1372C3.01576 20.6905 3.4092 21.1633 3.91401 21.4955C4.41883 21.8278 5.01227 22.0047 5.61907 22.0036C6.22574 22.0044 6.81898 21.8273 7.32356 21.4949C7.82814 21.1625 8.22135 20.6897 8.45332 20.1365C8.68529 19.5833 8.74558 18.9745 8.62654 18.3874C8.50751 17.8003 8.21451 17.2614 7.7847 16.8388C7.50329 16.5546 7.16611 16.3299 6.79375 16.1787C6.42139 16.0274 6.02169 15.9527 5.61907 15.959C5.21625 15.9528 4.81636 16.0276 4.44378 16.1789C4.0712 16.3301 3.73373 16.5547 3.45193 16.8388ZM3.03733 18.9851C3.03733 18.3093 3.30934 17.6612 3.79351 17.1834C4.27768 16.7056 4.93435 16.4371 5.61907 16.4371C6.30379 16.4371 6.96047 16.7056 7.44464 17.1834C7.92881 17.6612 8.20081 18.3093 8.20081 18.9851C8.20668 19.3203 8.14225 19.6531 8.01158 19.9627C7.88091 20.2722 7.68681 20.5517 7.44148 20.7836C7.20583 21.0243 6.92229 21.2144 6.60868 21.3418C6.29506 21.4692 5.95814 21.5312 5.61907 21.524C5.28003 21.531 4.94316 21.4689 4.62957 21.3415C4.31599 21.2141 4.03243 21.0242 3.79667 20.7836C3.55163 20.5514 3.35773 20.2719 3.22708 19.9624C3.09643 19.653 3.03183 19.3203 3.03733 18.9851Z" fill="#DBDBDB"/>
</g>
<defs>
<clipPath id="clip0_293_893">
<rect width="17" height="24" fill="white"/>
</clipPath>
</defs>
</svg>
