<svg width="24" height="24" viewBox="0 0 24 24" fill="none" xmlns="http://www.w3.org/2000/svg">
<g clip-path="url(#clip0_434_3197)">
<path d="M8.09893 21.8787L2.12132 15.9011C0.949748 14.7295 0.949746 12.83 2.12132 11.6585L11.5022 2.27759C12.1464 1.63343 13.0483 1.31686 13.9538 1.41715L19.6118 2.04386C21.0523 2.20341 22.1728 3.36995 22.2742 4.81569L22.6459 10.1145C22.7067 10.9811 22.3888 11.8315 21.7745 12.4458L12.3416 21.8787C11.17 23.0503 9.27051 23.0503 8.09893 21.8787Z" stroke="white" stroke-width="2"/>
<path d="M13.876 10.1235L7.91416 16.0854" stroke="#DBDBDB" stroke-width="1.5" stroke-linecap="round" stroke-linejoin="round"/>
<path d="M14.4441 12.3947L12.3149 10.2655C12.0514 10.002 11.6865 9.86139 11.3005 9.8747C10.9145 9.88801 10.539 10.0541 10.2567 10.3365C9.97433 10.6188 9.80823 10.9943 9.79492 11.3803C9.78161 11.7663 9.92218 12.1312 10.1857 12.3947L11.6052 13.8142C11.8687 14.0777 12.0093 14.4426 11.996 14.8286C11.9827 15.2146 11.8166 15.5901 11.5342 15.8724C11.2519 16.1548 10.8764 16.3209 10.4904 16.3342C10.1044 16.3475 9.73949 16.2069 9.47597 15.9434L7.06285 13.5303" stroke="#DBDBDB" stroke-width="1.5" stroke-linecap="round" stroke-linejoin="round"/>
<circle cx="17.2925" cy="6.88663" r="1.8067" stroke="white" stroke-width="1.5"/>
</g>
<defs>
<clipPath id="clip0_434_3197">
<rect width="24" height="24" fill="white"/>
</clipPath>
</defs>
</svg>
